<?xml version="1.0" standalone="no"?><!DOCTYPE svg PUBLIC "-//W3C//DTD SVG 1.1//EN" "http://www.w3.org/Graphics/SVG/1.1/DTD/svg11.dtd"><svg t="1659452912317" class="icon" viewBox="0 0 1024 1024" version="1.1" xmlns="http://www.w3.org/2000/svg" p-id="2700" xmlns:xlink="http://www.w3.org/1999/xlink" width="200" height="200"><defs><style type="text/css">@font-face { font-family: feedback-iconfont; src: url("//at.alicdn.com/t/font_1031158_u69w8yhxdu.woff2?t=1630033759944") format("woff2"), url("//at.alicdn.com/t/font_1031158_u69w8yhxdu.woff?t=1630033759944") format("woff"), url("//at.alicdn.com/t/font_1031158_u69w8yhxdu.ttf?t=1630033759944") format("truetype"); }
</style></defs><path d="M828.952381 867.961905H195.047619V370.590476L4.87619 619.27619l78.019048 58.514286 14.628572-19.504762v307.2h828.95238v-248.685714h-97.523809zM195.047619 156.038095h633.904762v502.247619l190.171429-248.685714-78.019048-58.514286-14.628572 19.504762V58.514286H97.52381v258.438095h97.523809z" p-id="2701"></path><path d="M687.542857 526.628571v-97.523809h-92.647619l78.019048-126.780952-87.771429-48.761905-73.142857 131.657143-78.019048-131.657143-82.895238 48.761905 73.142857 126.780952H336.457143v97.523809h126.780952v43.885715H336.457143v97.523809h126.780952v131.657143h97.52381v-131.657143h126.780952v-97.523809h-126.780952v-43.885715z" p-id="2702"></path></svg>